<?xml version="1.0" encoding="UTF-8"?>
<!DOCTYPE svg PUBLIC "-//W3C//DTD SVG 1.1//EN" "http://www.w3.org/Graphics/SVG/1.1/DTD/svg11.dtd">
<svg xmlns="http://www.w3.org/2000/svg" version="1.1" width="688px" height="363px" style="shape-rendering:geometricPrecision; text-rendering:geometricPrecision; image-rendering:optimizeQuality; fill-rule:evenodd; clip-rule:evenodd" xmlns:xlink="http://www.w3.org/1999/xlink">
<g><path style="opacity:1" fill="#fe4313" d="M 439.5,57.5 C 441.435,62.8045 443.268,68.1379 445,73.5C 445.667,101.167 445.667,128.833 445,156.5C 441.316,171.519 432.483,182.352 418.5,189C 397.392,201.218 376.059,212.885 354.5,224C 342.38,226.167 331.047,224.167 320.5,218C 300.322,205.744 279.989,193.744 259.5,182C 256.268,178.938 253.268,175.771 250.5,172.5C 247.058,166.676 244.891,160.342 244,153.5C 243.333,127.5 243.333,101.5 244,75.5C 245.851,62.2852 252.351,52.1185 263.5,45C 284.632,32.9324 305.632,20.599 326.5,8C 342.888,1.97646 358.222,3.97646 372.5,14C 390.002,24.5856 407.669,34.9189 425.5,45C 430.983,48.3193 435.649,52.486 439.5,57.5 Z"/></g>
<g><path style="opacity:1" fill="#ff7913" d="M 338.5,42.5 C 350.38,40.9572 359.88,44.9572 367,54.5C 368.417,63.7521 368.917,73.0854 368.5,82.5C 380.18,80.5989 390.013,83.9322 398,92.5C 403.115,100.101 403.782,108.101 400,116.5C 386.263,138.438 372.096,160.272 357.5,182C 339.552,192.929 326.552,188.762 318.5,169.5C 317.451,162.842 317.451,156.176 318.5,149.5C 312.779,149.631 307.112,149.131 301.5,148C 290.068,140.969 285.234,130.802 287,117.5C 295.943,100.595 305.609,84.262 316,68.5C 318.076,63.3489 320.41,58.3489 323,53.5C 326.504,47.1906 331.671,43.524 338.5,42.5 Z"/></g>
<g><path style="opacity:1" fill="#fe400b" d="M 338.5,47.5 C 350.77,46.0424 358.937,51.0424 363,62.5C 363.673,71.1894 363.507,79.856 362.5,88.5C 369.841,88.3337 377.174,88.5003 384.5,89C 392.041,92.0343 396.375,97.5343 397.5,105.5C 397.378,108.698 396.545,111.698 395,114.5C 382,134.833 369,155.167 356,175.5C 344.659,185.56 334.325,184.56 325,172.5C 323.167,162.819 323.333,153.152 325.5,143.5C 317.429,143.863 309.429,143.363 301.5,142C 298.296,139.131 295.463,135.965 293,132.5C 292.333,127.833 292.333,123.167 293,118.5C 304.475,96.8855 316.475,75.5521 329,54.5C 331.558,51.0759 334.725,48.7425 338.5,47.5 Z"/></g>
<g><path style="opacity:1" fill="#fefdfd" d="M 349.5,54.5 C 352.427,55.7573 354.761,57.7573 356.5,60.5C 356.231,71.2572 356.231,81.9238 356.5,92.5C 356.414,93.4959 356.748,94.3292 357.5,95C 366.494,95.4998 375.494,95.6664 384.5,95.5C 385.5,95.8333 386.167,96.5 386.5,97.5C 389.5,102.165 390.167,107.165 388.5,112.5C 360.813,113.158 333.48,112.491 306.5,110.5C 307.167,108.167 307.833,105.833 308.5,103.5C 312.356,100.465 314.689,96.4646 315.5,91.5C 319.666,87.8521 322.333,83.1854 323.5,77.5C 326.451,76.1906 327.784,73.8573 327.5,70.5C 329.931,68.954 331.264,66.6207 331.5,63.5C 333.369,61.9663 334.702,59.9663 335.5,57.5C 339.813,55.0408 344.48,54.0408 349.5,54.5 Z"/></g>
<g><path style="opacity:1" fill="#ffc0af" d="M 335.5,57.5 C 334.702,59.9663 333.369,61.9663 331.5,63.5C 331.845,60.8021 333.178,58.8021 335.5,57.5 Z"/></g>
<g><path style="opacity:1" fill="#ffb8a4" d="M 331.5,63.5 C 331.264,66.6207 329.931,68.954 327.5,70.5C 328.079,67.6689 329.412,65.3356 331.5,63.5 Z"/></g>
<g><path style="opacity:0.652" fill="#eb3d11" d="M 420.5,38.5 C 419.761,38.369 419.094,38.5357 418.5,39C 425.846,42.6774 432.346,47.5107 438,53.5C 438.791,54.745 439.291,56.0783 439.5,57.5C 435.649,52.486 430.983,48.3193 425.5,45C 407.669,34.9189 390.002,24.5856 372.5,14C 358.222,3.97646 342.888,1.97646 326.5,8C 305.632,20.599 284.632,32.9324 263.5,45C 252.351,52.1185 245.851,62.2852 244,75.5C 243.333,101.5 243.333,127.5 244,153.5C 244.891,160.342 247.058,166.676 250.5,172.5C 250.167,173.833 249.833,175.167 249.5,176.5C 245.64,171.79 242.807,166.457 241,160.5C 240.73,156.627 240.23,152.794 239.5,149C 240.137,128.86 240.304,108.694 240,88.5C 237.956,67.8905 245.456,52.0572 262.5,41C 283.267,30.1155 303.601,18.4488 323.5,6C 336.699,0.458986 350.033,0.125653 363.5,5C 382.669,16.0301 401.669,27.1968 420.5,38.5 Z"/></g>
<g><path style="opacity:1" fill="#ffc9bb" d="M 348.5,53.5 C 349.167,53.5 349.5,53.8333 349.5,54.5C 344.48,54.0408 339.813,55.0408 335.5,57.5C 335.81,55.8564 336.81,54.8564 338.5,54.5C 341.764,53.6758 345.098,53.3424 348.5,53.5 Z"/></g>
<g><path style="opacity:1" fill="#ff7b59" d="M 348.5,53.5 C 345.098,53.3424 341.764,53.6758 338.5,54.5C 338.611,53.8826 338.944,53.3826 339.5,53C 342.696,52.1955 345.696,52.3622 348.5,53.5 Z"/></g>
<g><path style="opacity:1" fill="#ffc3b2" d="M 327.5,70.5 C 327.784,73.8573 326.451,76.1906 323.5,77.5C 324.079,74.6689 325.412,72.3356 327.5,70.5 Z"/></g>
<g><path style="opacity:1" fill="#ffc3b3" d="M 323.5,77.5 C 322.333,83.1854 319.666,87.8521 315.5,91.5C 317.159,86.1734 319.826,81.5067 323.5,77.5 Z"/></g>
<g><path style="opacity:1" fill="#ff9a80" d="M 356.5,60.5 C 357.494,70.9869 357.828,81.6536 357.5,92.5C 357.167,92.5 356.833,92.5 356.5,92.5C 356.231,81.9238 356.231,71.2572 356.5,60.5 Z"/></g>
<g><path style="opacity:1" fill="#ffb5a1" d="M 356.5,92.5 C 356.833,92.5 357.167,92.5 357.5,92.5C 357.611,93.1174 357.944,93.6174 358.5,94C 363.659,94.2111 368.826,94.0445 374,93.5C 377.805,93.3037 381.305,93.9704 384.5,95.5C 375.494,95.6664 366.494,95.4998 357.5,95C 356.748,94.3292 356.414,93.4959 356.5,92.5 Z"/></g>
<g><path style="opacity:1" fill="#ffc1b0" d="M 315.5,91.5 C 314.689,96.4646 312.356,100.465 308.5,103.5C 310.043,98.9758 312.377,94.9758 315.5,91.5 Z"/></g>
<g><path style="opacity:1" fill="#ffbaa8" d="M 386.5,97.5 C 391.121,100.589 392.621,104.923 391,110.5C 390.487,111.527 389.987,112.527 389.5,113.5C 389.167,113.5 388.833,113.5 388.5,113.5C 388.5,113.167 388.5,112.833 388.5,112.5C 390.167,107.165 389.5,102.165 386.5,97.5 Z"/></g>
<g><path style="opacity:1" fill="#ffb9a6" d="M 308.5,103.5 C 307.833,105.833 307.167,108.167 306.5,110.5C 305.833,110.5 305.167,110.5 304.5,110.5C 305.079,107.669 306.412,105.336 308.5,103.5 Z"/></g>
<g><path style="opacity:1" fill="#febfb4" d="M 304.5,110.5 C 304.818,113.481 303.818,115.815 301.5,117.5C 301.167,117.5 300.833,117.5 300.5,117.5C 301.079,114.669 302.412,112.336 304.5,110.5 Z"/></g>
<g><path style="opacity:1" fill="#f8f5fe" d="M 304.5,110.5 C 305.167,110.5 305.833,110.5 306.5,110.5C 333.48,112.491 360.813,113.158 388.5,112.5C 388.5,112.833 388.5,113.167 388.5,113.5C 387.248,115.001 386.248,116.668 385.5,118.5C 357.892,118.183 330.392,118.517 303,119.5C 302.283,118.956 301.783,118.289 301.5,117.5C 303.818,115.815 304.818,113.481 304.5,110.5 Z"/></g>
<g><path style="opacity:1" fill="#fe6d4a" d="M 388.5,113.5 C 388.833,113.5 389.167,113.5 389.5,113.5C 388.702,115.966 387.369,117.966 385.5,119.5C 385.5,119.167 385.5,118.833 385.5,118.5C 386.248,116.668 387.248,115.001 388.5,113.5 Z"/></g>
<g><path style="opacity:1" fill="#fc8b74" d="M 300.5,117.5 C 300.573,119.027 299.906,120.027 298.5,120.5C 298.427,118.973 299.094,117.973 300.5,117.5 Z"/></g>
<g><path style="opacity:1" fill="#fc7e63" d="M 385.5,119.5 C 385.573,121.027 384.906,122.027 383.5,122.5C 383.427,120.973 384.094,119.973 385.5,119.5 Z"/></g>
<g><path style="opacity:1" fill="#f2edfe" d="M 300.5,117.5 C 300.833,117.5 301.167,117.5 301.5,117.5C 301.783,118.289 302.283,118.956 303,119.5C 330.392,118.517 357.892,118.183 385.5,118.5C 385.5,118.833 385.5,119.167 385.5,119.5C 384.094,119.973 383.427,120.973 383.5,122.5C 381.178,123.802 379.845,125.802 379.5,128.5C 378.5,128.833 377.833,129.5 377.5,130.5C 351.833,130.5 326.167,130.5 300.5,130.5C 299.833,130.167 299.167,129.833 298.5,129.5C 298.5,126.5 298.5,123.5 298.5,120.5C 299.906,120.027 300.573,119.027 300.5,117.5 Z"/></g>
<g><path style="opacity:1" fill="#fd7152" d="M 383.5,122.5 C 383.419,125.513 382.086,127.513 379.5,128.5C 379.845,125.802 381.178,123.802 383.5,122.5 Z"/></g>
<g><path style="opacity:1" fill="#f88978" d="M 379.5,128.5 C 379.573,130.027 378.906,131.027 377.5,131.5C 377.5,131.167 377.5,130.833 377.5,130.5C 377.833,129.5 378.5,128.833 379.5,128.5 Z"/></g>
<g><path style="opacity:1" fill="#f88573" d="M 298.5,129.5 C 299.167,129.833 299.833,130.167 300.5,130.5C 300.5,131.167 300.5,131.833 300.5,132.5C 299.094,132.027 298.427,131.027 298.5,129.5 Z"/></g>
<g><path style="opacity:1" fill="#ebe3fe" d="M 300.5,130.5 C 326.167,130.5 351.833,130.5 377.5,130.5C 377.5,130.833 377.5,131.167 377.5,131.5C 376.662,131.842 376.328,132.508 376.5,133.5C 374.457,134.579 373.124,136.246 372.5,138.5C 358.266,137.56 343.933,137.226 329.5,137.5C 329.167,137.5 328.833,137.5 328.5,137.5C 321.679,136.671 314.679,136.171 307.5,136C 305.261,134.582 302.928,133.415 300.5,132.5C 300.5,131.833 300.5,131.167 300.5,130.5 Z"/></g>
<g><path style="opacity:1" fill="#f2acb0" d="M 300.5,132.5 C 302.928,133.415 305.261,134.582 307.5,136C 314.679,136.171 321.679,136.671 328.5,137.5C 320.826,137.666 313.159,137.5 305.5,137C 303.34,136.004 301.673,134.504 300.5,132.5 Z"/></g>
<g><path style="opacity:1" fill="#fa7158" d="M 376.5,133.5 C 375.702,135.966 374.369,137.966 372.5,139.5C 372.5,139.167 372.5,138.833 372.5,138.5C 373.124,136.246 374.457,134.579 376.5,133.5 Z"/></g>
<g><path style="opacity:1" fill="#e5dafc" d="M 329.5,137.5 C 343.933,137.226 358.266,137.56 372.5,138.5C 372.5,138.833 372.5,139.167 372.5,139.5C 371.094,139.973 370.427,140.973 370.5,142.5C 369.662,142.842 369.328,143.508 369.5,144.5C 367.178,145.802 365.845,147.802 365.5,150.5C 364.833,150.833 364.167,151.167 363.5,151.5C 352.931,150.182 342.265,150.182 331.5,151.5C 332.726,147.367 332.726,143.367 331.5,139.5C 330.5,139.167 329.833,138.5 329.5,137.5 Z"/></g>
<g><path style="opacity:1" fill="#f58173" d="M 372.5,139.5 C 372.573,141.027 371.906,142.027 370.5,142.5C 370.427,140.973 371.094,139.973 372.5,139.5 Z"/></g>
<g><path style="opacity:1" fill="#eaadbf" d="M 331.5,139.5 C 332.726,143.367 332.726,147.367 331.5,151.5C 331.784,153.415 331.451,155.081 330.5,156.5C 330.5,155.5 330.5,154.5 330.5,153.5C 331.127,148.859 331.46,144.193 331.5,139.5 Z"/></g>
<g><path style="opacity:1" fill="#f76b53" d="M 369.5,144.5 C 368.702,146.966 367.369,148.966 365.5,150.5C 365.845,147.802 367.178,145.802 369.5,144.5 Z"/></g>
<g><path style="opacity:1" fill="#dccefd" d="M 363.5,151.5 C 363.167,152.833 362.833,154.167 362.5,155.5C 361.094,155.973 360.427,156.973 360.5,158.5C 358.178,159.802 356.845,161.802 356.5,164.5C 355.662,164.842 355.328,165.508 355.5,166.5C 355.167,166.5 354.833,166.5 354.5,166.5C 347.24,164.535 339.573,163.868 331.5,164.5C 331.737,163.209 331.404,162.209 330.5,161.5C 330.5,160.167 330.5,158.833 330.5,157.5C 330.5,157.167 330.5,156.833 330.5,156.5C 331.451,155.081 331.784,153.415 331.5,151.5C 342.265,150.182 352.931,150.182 363.5,151.5 Z"/></g>
<g><path style="opacity:1" fill="#f86249" d="M 365.5,150.5 C 365.408,152.848 364.408,154.514 362.5,155.5C 362.833,154.167 363.167,152.833 363.5,151.5C 364.167,151.167 364.833,150.833 365.5,150.5 Z"/></g>
<g><path style="opacity:1" fill="#f36c5d" d="M 362.5,155.5 C 362.573,157.027 361.906,158.027 360.5,158.5C 360.427,156.973 361.094,155.973 362.5,155.5 Z"/></g>
<g><path style="opacity:1" fill="#f55c45" d="M 330.5,153.5 C 330.5,154.5 330.5,155.5 330.5,156.5C 330.5,156.833 330.5,157.167 330.5,157.5C 329.523,160.287 329.19,163.287 329.5,166.5C 328.84,165.036 328.507,163.369 328.5,161.5C 328.382,158.514 329.048,155.848 330.5,153.5 Z"/></g>
<g><path style="opacity:1" fill="#e29fb8" d="M 330.5,157.5 C 330.5,158.833 330.5,160.167 330.5,161.5C 330.575,164.206 330.908,166.873 331.5,169.5C 330.599,168.71 329.932,167.71 329.5,166.5C 329.19,163.287 329.523,160.287 330.5,157.5 Z"/></g>
<g><path style="opacity:1" fill="#f46755" d="M 360.5,158.5 C 359.702,160.966 358.369,162.966 356.5,164.5C 356.845,161.802 358.178,159.802 360.5,158.5 Z"/></g>
<g><path style="opacity:1" fill="#d4c0fa" d="M 330.5,161.5 C 331.404,162.209 331.737,163.209 331.5,164.5C 339.573,163.868 347.24,164.535 354.5,166.5C 353.89,167.391 353.557,168.391 353.5,169.5C 351.023,172.315 348.023,174.315 344.5,175.5C 341.482,175.296 338.482,174.963 335.5,174.5C 333.413,173.415 332.08,171.749 331.5,169.5C 330.908,166.873 330.575,164.206 330.5,161.5 Z"/></g>
<g><path style="opacity:1" fill="#f16456" d="M 354.5,166.5 C 354.833,166.5 355.167,166.5 355.5,166.5C 355.573,168.027 354.906,169.027 353.5,169.5C 353.557,168.391 353.89,167.391 354.5,166.5 Z"/></g>
<g><path style="opacity:1" fill="#f06559" d="M 353.5,169.5 C 351.984,173.677 348.984,176.011 344.5,176.5C 344.5,176.167 344.5,175.833 344.5,175.5C 348.023,174.315 351.023,172.315 353.5,169.5 Z"/></g>
<g><path style="opacity:0.036" fill="#f24013" d="M 420.5,38.5 C 434.333,44.1687 443.5,54.1687 448,68.5C 449.802,99.1628 449.802,129.829 448,160.5C 445.111,170.449 439.611,178.616 431.5,185C 407.158,199.506 382.491,213.506 357.5,227C 349.158,228.959 340.825,228.959 332.5,227C 305.77,213.468 279.77,198.634 254.5,182.5C 252.81,180.481 251.144,178.481 249.5,176.5C 249.833,175.167 250.167,173.833 250.5,172.5C 253.268,175.771 256.268,178.938 259.5,182C 279.989,193.744 300.322,205.744 320.5,218C 331.047,224.167 342.38,226.167 354.5,224C 376.059,212.885 397.392,201.218 418.5,189C 432.483,182.352 441.316,171.519 445,156.5C 445.667,128.833 445.667,101.167 445,73.5C 443.268,68.1379 441.435,62.8045 439.5,57.5C 439.291,56.0783 438.791,54.745 438,53.5C 432.346,47.5107 425.846,42.6774 418.5,39C 419.094,38.5357 419.761,38.369 420.5,38.5 Z"/></g>
<g><path style="opacity:1" fill="#e77e88" d="M 335.5,174.5 C 338.482,174.963 341.482,175.296 344.5,175.5C 344.5,175.833 344.5,176.167 344.5,176.5C 341.123,176.932 338.123,176.265 335.5,174.5 Z"/></g>
<g><path style="opacity:0.147" fill="#eaeaea" d="M 81.5,263.5 C 89.5069,263.334 97.5069,263.5 105.5,264C 106.931,264.465 108.097,265.299 109,266.5C 110.62,277.402 110.954,288.402 110,299.5C 109.417,301.002 108.584,302.335 107.5,303.5C 98.5482,304.639 89.5482,304.805 80.5,304C 79.7894,302.745 78.956,301.579 78,300.5C 77.3333,289.167 77.3333,277.833 78,266.5C 79.1451,265.364 80.3117,264.364 81.5,263.5 Z M 92.5,276.5 C 93.8333,276.5 95.1667,276.5 96.5,276.5C 96.5,281.5 96.5,286.5 96.5,291.5C 94.8333,291.5 93.1667,291.5 91.5,291.5C 91.2213,286.405 91.5546,281.405 92.5,276.5 Z"/></g>
<g><path style="opacity:0.537" fill="#eeeeee" d="M 33.5,263.5 C 37.7826,262.989 41.7826,263.656 45.5,265.5C 46.498,274.141 46.8314,282.808 46.5,291.5C 47.8333,291.5 49.1667,291.5 50.5,291.5C 50.2229,288.552 50.5562,285.719 51.5,283C 55.8713,282.172 60.2047,282.339 64.5,283.5C 65.6236,289.448 65.7903,295.448 65,301.5C 64.6258,302.416 64.1258,303.25 63.5,304C 53.2562,304.819 43.0895,304.652 33,303.5C 32.1865,290.092 32.3532,276.758 33.5,263.5 Z"/></g>
<g><path style="opacity:0.267" fill="#efefef" d="M 170.5,263.5 C 179.173,263.334 187.84,263.5 196.5,264C 199.005,264.51 200.505,266.01 201,268.5C 201.667,279.167 201.667,289.833 201,300.5C 200.167,301.5 199.333,302.5 198.5,303.5C 188.637,304.824 178.803,304.824 169,303.5C 168.833,297 168.667,290.5 168.5,284C 168.538,276.929 169.205,270.096 170.5,263.5 Z M 186.5,276.5 C 187.487,281.305 187.821,286.305 187.5,291.5C 185.833,291.5 184.167,291.5 182.5,291.5C 182.334,286.821 182.501,282.155 183,277.5C 184.011,276.663 185.178,276.33 186.5,276.5 Z"/></g>
<g><path style="opacity:0.958" fill="#fefefe" d="M 33.5,267.5 C 36.5,267.5 39.5,267.5 42.5,267.5C 42.3336,276.173 42.5002,284.84 43,293.5C 46.3936,294.456 49.8936,294.789 53.5,294.5C 53.7038,291.482 54.0371,288.482 54.5,285.5C 56.8333,285.5 59.1667,285.5 61.5,285.5C 61.5,290.833 61.5,296.167 61.5,301.5C 52.1667,301.5 42.8333,301.5 33.5,301.5C 33.5,290.167 33.5,278.833 33.5,267.5 Z"/></g>
<g><path style="opacity:0.999" fill="#fbfbfb" d="M 84.5,264.5 C 91.1667,264.5 97.8333,264.5 104.5,264.5C 104.312,266.103 104.812,267.437 106,268.5C 106.667,278.833 106.667,289.167 106,299.5C 105.5,300 105,300.5 104.5,301C 97.1667,301.667 89.8333,301.667 82.5,301C 81.8742,300.25 81.3742,299.416 81,298.5C 80.3333,288.833 80.3333,279.167 81,269.5C 82.1404,267.721 83.307,266.054 84.5,264.5 Z M 92.5,276.5 C 91.5546,281.405 91.2213,286.405 91.5,291.5C 93.1667,291.5 94.8333,291.5 96.5,291.5C 96.5,286.5 96.5,281.5 96.5,276.5C 95.1667,276.5 93.8333,276.5 92.5,276.5 Z"/></g>
<g><path style="opacity:0.998" fill="#fcfcfc" d="M 179.5,265.5 C 184.179,265.334 188.845,265.501 193.5,266C 195.061,266.318 196.228,267.151 197,268.5C 197.667,278.833 197.667,289.167 197,299.5C 196.25,300.126 195.416,300.626 194.5,301C 187.167,301.667 179.833,301.667 172.5,301C 171.584,300.626 170.75,300.126 170,299.5C 169.5,288.505 169.333,277.505 169.5,266.5C 173.042,266.813 176.375,266.479 179.5,265.5 Z M 186.5,276.5 C 187.487,281.305 187.821,286.305 187.5,291.5C 185.833,291.5 184.167,291.5 182.5,291.5C 182.334,286.821 182.501,282.155 183,277.5C 184.011,276.663 185.178,276.33 186.5,276.5 Z"/></g>
<g><path style="opacity:0.601" fill="#eeeded" d="M 380.5,263.5 C 389.173,263.334 397.84,263.5 406.5,264C 408.002,264.583 409.335,265.416 410.5,266.5C 411.645,277.787 411.811,289.12 411,300.5C 410.167,301.5 409.333,302.5 408.5,303.5C 398.864,304.807 389.197,304.807 379.5,303.5C 378.353,290.879 378.186,278.212 379,265.5C 379.717,264.956 380.217,264.289 380.5,263.5 Z M 392.5,276.5 C 394.167,276.5 395.833,276.5 397.5,276.5C 397.5,281.5 397.5,286.5 397.5,291.5C 395.833,291.5 394.167,291.5 392.5,291.5C 392.5,286.5 392.5,281.5 392.5,276.5 Z"/></g>
<g><path style="opacity:0.994" fill="#fcfbfb" d="M 385.5,264.5 C 391.868,264.17 398.202,264.504 404.5,265.5C 405.145,266.646 405.978,267.646 407,268.5C 407.819,279.077 407.652,289.577 406.5,300C 402.28,301.104 397.947,301.604 393.5,301.5C 389.584,301.483 385.75,301.15 382,300.5C 381.5,289.172 381.333,277.838 381.5,266.5C 383.38,266.771 384.713,266.104 385.5,264.5 Z M 392.5,276.5 C 392.5,281.5 392.5,286.5 392.5,291.5C 394.167,291.5 395.833,291.5 397.5,291.5C 397.5,286.5 397.5,281.5 397.5,276.5C 395.833,276.5 394.167,276.5 392.5,276.5 Z"/></g>
<g><path style="opacity:0.122" fill="#f1f0ef" d="M 337.5,263.5 C 345.507,263.334 353.507,263.5 361.5,264C 362.931,264.465 364.097,265.299 365,266.5C 366.597,277.427 366.931,288.427 366,299.5C 365.215,301.286 364.049,302.786 362.5,304C 353.833,304.667 345.167,304.667 336.5,304C 335.667,303.167 334.833,302.333 334,301.5C 333.333,289.833 333.333,278.167 334,266.5C 335.145,265.364 336.312,264.364 337.5,263.5 Z M 346.5,276.5 C 348.167,276.5 349.833,276.5 351.5,276.5C 351.5,281.5 351.5,286.5 351.5,291.5C 349.833,291.5 348.167,291.5 346.5,291.5C 346.5,286.5 346.5,281.5 346.5,276.5 Z"/></g>
<g><path style="opacity:0.988" fill="#fcfcfc" d="M 338.5,267.5 C 346.42,267.185 354.253,267.518 362,268.5C 362.333,277.5 362.667,286.5 363,295.5C 365,297.167 365,298.833 363,300.5C 361.927,299.72 360.76,299.887 359.5,301C 352.5,301.667 345.5,301.667 338.5,301C 337.975,300.308 337.308,299.808 336.5,299.5C 335.501,289.188 335.168,278.855 335.5,268.5C 336.791,268.737 337.791,268.404 338.5,267.5 Z M 346.5,276.5 C 346.5,281.5 346.5,286.5 346.5,291.5C 348.167,291.5 349.833,291.5 351.5,291.5C 351.5,286.5 351.5,281.5 351.5,276.5C 349.833,276.5 348.167,276.5 346.5,276.5 Z"/></g>
<g><path style="opacity:0.133" fill="#eeeeee" d="M 428.5,263.5 C 436.174,263.334 443.841,263.5 451.5,264C 453.081,264.707 454.581,265.54 456,266.5C 458,278.167 458,289.833 456,301.5C 455.167,302.333 454.333,303.167 453.5,304C 444.833,304.667 436.167,304.667 427.5,304C 426.667,303.167 425.833,302.333 425,301.5C 424.333,289.833 424.333,278.167 425,266.5C 426.145,265.364 427.312,264.364 428.5,263.5 Z M 437.5,276.5 C 439.167,276.5 440.833,276.5 442.5,276.5C 442.5,281.5 442.5,286.5 442.5,291.5C 440.833,291.5 439.167,291.5 437.5,291.5C 437.5,286.5 437.5,281.5 437.5,276.5 Z"/></g>
<g><path style="opacity:0.998" fill="#fdfdfd" d="M 428.5,267.5 C 436.752,267.184 444.919,267.518 453,268.5C 453.667,278.5 453.667,288.5 453,298.5C 452.167,299.333 451.333,300.167 450.5,301C 442.465,301.736 434.465,301.569 426.5,300.5C 425.891,289.245 426.558,278.245 428.5,267.5 Z M 437.5,276.5 C 437.5,281.5 437.5,286.5 437.5,291.5C 439.167,291.5 440.833,291.5 442.5,291.5C 442.5,286.5 442.5,281.5 442.5,276.5C 440.833,276.5 439.167,276.5 437.5,276.5 Z"/></g>
<g><path style="opacity:0.488" fill="#eeeeee" d="M 626.5,263.5 C 635.839,263.334 645.173,263.5 654.5,264C 656.389,267.836 657.055,272.003 656.5,276.5C 653.5,276.5 650.5,276.5 647.5,276.5C 647.666,285.506 647.5,294.506 647,303.5C 643.256,304.626 639.423,304.793 635.5,304C 634.107,302.829 633.273,301.329 633,299.5C 633.121,291.779 632.954,284.112 632.5,276.5C 629.833,276.5 627.167,276.5 624.5,276.5C 623.082,271.784 623.748,267.451 626.5,263.5 Z"/></g>
<g><path style="opacity:0.993" fill="#fefefe" d="M 637.5,266.5 C 643.26,267.141 649.26,267.474 655.5,267.5C 655.643,269.262 655.309,270.929 654.5,272.5C 651.296,273.204 648.129,273.87 645,274.5C 644.5,283.494 644.334,292.494 644.5,301.5C 642.208,301.756 640.041,301.423 638,300.5C 637.667,291.833 637.333,283.167 637,274.5C 633.943,273.549 630.777,273.216 627.5,273.5C 627.5,271.5 627.5,269.5 627.5,267.5C 631.042,267.813 634.375,267.479 637.5,266.5 Z"/></g>
<g><path style="opacity:0.413" fill="#e3e3e3" d="M 182.5,291.5 C 184.167,291.5 185.833,291.5 187.5,291.5C 187.821,286.305 187.487,281.305 186.5,276.5C 186.611,275.883 186.944,275.383 187.5,275C 186.167,274.667 184.833,274.333 183.5,274C 185.769,273.242 187.936,273.409 190,274.5C 190.831,280.859 190.664,287.193 189.5,293.5C 187.018,292.933 184.684,292.266 182.5,291.5 Z"/></g>
<g><path style="opacity:0.804" fill="#f0eeee" d="M 289.5,263.5 C 299.172,263.334 308.839,263.5 318.5,264C 319,264.5 319.5,265 320,265.5C 320.667,268.833 320.667,272.167 320,275.5C 317.281,276.444 314.448,276.777 311.5,276.5C 311.666,284.84 311.5,293.173 311,301.5C 310.626,302.416 310.126,303.25 309.5,304C 305.514,304.499 301.514,304.666 297.5,304.5C 297.5,295.167 297.5,285.833 297.5,276.5C 294.5,276.5 291.5,276.5 288.5,276.5C 287.308,272.065 287.641,267.732 289.5,263.5 Z"/></g>
<g><path style="opacity:0.989" fill="#fdfdfd" d="M 293.5,265.5 C 301.875,265.26 310.208,265.593 318.5,266.5C 318.5,268.833 318.5,271.167 318.5,273.5C 315.167,273.5 311.833,273.5 308.5,273.5C 308.5,282.833 308.5,292.167 308.5,301.5C 305.833,301.5 303.167,301.5 300.5,301.5C 300.666,292.494 300.5,283.494 300,274.5C 296.606,273.544 293.106,273.211 289.5,273.5C 289.5,271.167 289.5,268.833 289.5,266.5C 291.099,266.768 292.432,266.434 293.5,265.5 Z"/></g>
<g><path style="opacity:0.749" fill="#ececec" d="M 434.5,273.5 C 438.167,273.5 441.833,273.5 445.5,273.5C 445.5,280.5 445.5,287.5 445.5,294.5C 441.833,294.5 438.167,294.5 434.5,294.5C 434.323,287.333 434.323,280.333 434.5,273.5 Z M 437.5,276.5 C 437.5,281.5 437.5,286.5 437.5,291.5C 439.167,291.5 440.833,291.5 442.5,291.5C 442.5,286.5 442.5,281.5 442.5,276.5C 440.833,276.5 439.167,276.5 437.5,276.5 Z"/></g>
<g><path style="opacity:0.513" fill="#ececec" d="M 583.5,263.5 C 591.889,263.197 600.222,263.53 608.5,264.5C 609.795,268.38 609.795,272.214 608.5,276C 604.167,276.333 599.833,276.667 595.5,277C 600.469,278.984 605.302,281.151 610,283.5C 612.452,290.678 611.952,297.511 608.5,304C 598.816,304.832 589.149,304.665 579.5,303.5C 578.167,299.833 578.167,296.167 579.5,292.5C 585.138,291.67 590.804,291.17 596.5,291C 591.079,289.973 586.079,287.973 581.5,285C 580.299,284.097 579.465,282.931 579,281.5C 578.333,277.167 578.333,272.833 579,268.5C 580.193,266.503 581.693,264.836 583.5,263.5 Z"/></g>
<g><path style="opacity:0.998" fill="#fcfcfc" d="M 586.5,264.5 C 592.842,264.334 599.175,264.5 605.5,265C 604.304,265.654 604.304,266.154 605.5,266.5C 606.167,266.167 606.833,265.833 607.5,265.5C 610.546,275.463 607.546,278.13 598.5,273.5C 595.833,273.667 593.167,273.833 590.5,274C 589.167,275.667 589.167,277.333 590.5,279C 595.868,281.005 601.202,283.005 606.5,285C 609.167,290.333 609.167,295.667 606.5,301C 598.507,301.5 590.507,301.666 582.5,301.5C 582.5,299.167 582.5,296.833 582.5,294.5C 588.509,294.666 594.509,294.499 600.5,294C 601.833,292.333 601.833,290.667 600.5,289C 594.229,287.364 588.396,284.864 583,281.5C 582.333,277.167 582.333,272.833 583,268.5C 584.376,267.295 585.542,265.962 586.5,264.5 Z"/></g>
<g><path style="opacity:0.266" fill="#ebebeb" d="M 124.5,263.5 C 131.948,261.64 137.448,263.973 141,270.5C 141.067,267.953 141.901,265.786 143.5,264C 147.225,263.24 150.892,263.407 154.5,264.5C 155.822,277.729 155.822,290.896 154.5,304C 150.459,304.827 146.459,304.66 142.5,303.5C 142.329,298.051 140.829,293.051 138,288.5C 137.667,292.833 137.333,297.167 137,301.5C 136.308,302.025 135.808,302.692 135.5,303.5C 131.555,304.491 127.555,304.824 123.5,304.5C 123.185,290.754 123.519,277.088 124.5,263.5 Z"/></g>
<g><path style="opacity:0.999" fill="#fdfdfd" d="M 145.5,266.5 C 147.833,266.5 150.167,266.5 152.5,266.5C 152.5,278.167 152.5,289.833 152.5,301.5C 149.881,301.768 147.381,301.435 145,300.5C 144.84,296.713 144.174,293.046 143,289.5C 140.752,286.672 138.752,283.672 137,280.5C 135.989,279.663 134.822,279.33 133.5,279.5C 133.666,286.508 133.5,293.508 133,300.5C 130.959,301.423 128.792,301.756 126.5,301.5C 126.5,290.167 126.5,278.833 126.5,267.5C 133.413,265.918 137.58,268.584 139,275.5C 140.571,277.923 142.737,279.256 145.5,279.5C 145.5,275.167 145.5,270.833 145.5,266.5 Z"/></g>
<g><path style="opacity:0.388" fill="#ebebeb" d="M 499.5,263.5 C 502.85,263.335 506.183,263.502 509.5,264C 510,264.5 510.5,265 511,265.5C 511.333,273.833 511.667,282.167 512,290.5C 513.356,291.38 514.856,291.714 516.5,291.5C 516.223,288.552 516.556,285.719 517.5,283C 521.821,282.501 526.154,282.334 530.5,282.5C 530.813,289.755 530.48,296.921 529.5,304C 519.151,304.832 508.817,304.666 498.5,303.5C 497.353,290.879 497.186,278.212 498,265.5C 498.717,264.956 499.217,264.289 499.5,263.5 Z"/></g>
<g><path style="opacity:0.997" fill="#fdfdfd" d="M 501.5,266.5 C 503.792,266.244 505.959,266.577 508,267.5C 508.5,276.494 508.666,285.494 508.5,294.5C 512.182,294.665 515.848,294.499 519.5,294C 520.444,291.281 520.777,288.448 520.5,285.5C 523.249,285.726 525.916,285.393 528.5,284.5C 529.664,290.472 529.83,296.472 529,302.5C 519.583,301.515 510.083,301.182 500.5,301.5C 500.189,289.753 500.522,278.086 501.5,266.5 Z"/></g>
<g><path style="opacity:0.072" fill="#ebebeb" d="M 544.5,263.5 C 551.175,263.334 557.842,263.5 564.5,264C 565.464,268.066 565.797,272.233 565.5,276.5C 564.178,276.33 563.011,276.663 562,277.5C 561.501,282.155 561.334,286.821 561.5,291.5C 562.833,291.5 564.167,291.5 565.5,291.5C 566.833,295.833 566.833,300.167 565.5,304.5C 558.492,304.666 551.492,304.5 544.5,304C 542.477,300.817 541.977,297.317 543,293.5C 544.11,291.963 545.61,291.297 547.5,291.5C 547.5,286.5 547.5,281.5 547.5,276.5C 545.61,276.703 544.11,276.037 543,274.5C 542.013,270.525 542.513,266.859 544.5,263.5 Z"/></g>
<g><path style="opacity:0.999" fill="#fdfdfd" d="M 546.5,267.5 C 551.833,267.5 557.167,267.5 562.5,267.5C 562.5,269.5 562.5,271.5 562.5,273.5C 561.178,273.33 560.011,273.663 559,274.5C 558.333,280.833 558.333,287.167 559,293.5C 560.011,294.337 561.178,294.67 562.5,294.5C 562.5,296.833 562.5,299.167 562.5,301.5C 557.167,301.5 551.833,301.5 546.5,301.5C 546.338,299.473 546.505,297.473 547,295.5C 548.011,294.663 549.178,294.33 550.5,294.5C 550.5,287.5 550.5,280.5 550.5,273.5C 549.167,273.5 547.833,273.5 546.5,273.5C 546.5,271.5 546.5,269.5 546.5,267.5 Z"/></g>
<g><path style="opacity:0.022" fill="#eeeeee" d="M 218.5,263.5 C 226.507,263.334 234.507,263.5 242.5,264C 243.416,264.374 244.25,264.874 245,265.5C 246.623,277.07 246.957,288.736 246,300.5C 245.535,301.931 244.701,303.097 243.5,304C 234.833,304.667 226.167,304.667 217.5,304C 215.114,302.156 213.947,299.656 214,296.5C 213.789,287.912 213.623,279.412 213.5,271C 213.818,267.53 215.484,265.03 218.5,263.5 Z M 228.5,276.5 C 229.833,276.5 231.167,276.5 232.5,276.5C 232.5,281.5 232.5,286.5 232.5,291.5C 231.167,291.5 229.833,291.5 228.5,291.5C 228.5,286.5 228.5,281.5 228.5,276.5 Z"/></g>
<g><path style="opacity:0.999" fill="#fafafa" d="M 221.5,264.5 C 227.868,264.17 234.202,264.504 240.5,265.5C 240.919,266.672 241.585,267.672 242.5,268.5C 243.666,278.483 243.832,288.483 243,298.5C 242.626,299.416 242.126,300.25 241.5,301C 234.167,301.667 226.833,301.667 219.5,301C 219,300.5 218.5,300 218,299.5C 217.333,289.167 217.333,278.833 218,268.5C 219.627,267.468 220.793,266.134 221.5,264.5 Z M 228.5,276.5 C 228.5,281.5 228.5,286.5 228.5,291.5C 229.833,291.5 231.167,291.5 232.5,291.5C 232.5,286.5 232.5,281.5 232.5,276.5C 231.167,276.5 229.833,276.5 228.5,276.5 Z"/></g>
</svg>
