<?xml version="1.0" encoding="UTF-8"?>
<!DOCTYPE svg PUBLIC "-//W3C//DTD SVG 1.1//EN" "http://www.w3.org/Graphics/SVG/1.1/DTD/svg11.dtd">
<svg xmlns="http://www.w3.org/2000/svg" version="1.1" width="207px" height="203px" style="shape-rendering:geometricPrecision; text-rendering:geometricPrecision; image-rendering:optimizeQuality; fill-rule:evenodd; clip-rule:evenodd" xmlns:xlink="http://www.w3.org/1999/xlink">
<g><path style="opacity:1" fill="#f1633f" d="M 125.5,11.5 C 114.677,6.12742 103.344,4.62742 91.5,7C 87.376,9.39722 83.0427,11.2306 78.5,12.5C 89.8754,3.32893 102.542,1.16226 116.5,6C 119.898,7.35706 122.898,9.19039 125.5,11.5 Z"/></g>
<g><path style="opacity:1" fill="#fe4415" d="M 125.5,11.5 C 144.603,21.5525 163.27,32.3858 181.5,44C 182.823,44.8159 183.489,45.9826 183.5,47.5C 183.343,48.8734 183.51,50.2068 184,51.5C 186.44,54.7278 188.606,58.0611 190.5,61.5C 190.667,86.8355 190.5,112.169 190,137.5C 189.887,139.974 188.887,141.974 187,143.5C 186.505,145.473 186.338,147.473 186.5,149.5C 182.066,156.383 176.066,161.383 168.5,164.5C 166.856,164.714 165.356,164.38 164,163.5C 162.513,164.253 162.346,165.086 163.5,166C 162.207,166.49 160.873,166.657 159.5,166.5C 159.5,167.5 159.5,168.5 159.5,169.5C 156.285,171.718 152.618,172.885 148.5,173C 148.957,173.414 149.291,173.914 149.5,174.5C 147.581,175.612 145.914,176.946 144.5,178.5C 135.602,185.118 125.935,190.451 115.5,194.5C 106.087,196.065 96.7534,195.732 87.5,193.5C 77.5073,189.175 68.174,183.841 59.5,177.5C 58.1751,175.187 56.1751,173.521 53.5,172.5C 52.8333,170.833 52.1667,169.167 51.5,167.5C 49.9065,169.66 48.2399,169.827 46.5,168C 48.0074,167.163 48.5074,165.996 48,164.5C 46.5341,166.325 44.7008,166.825 42.5,166C 42.8333,165.667 43.1667,165.333 43.5,165C 40.7934,164.605 38.1267,164.105 35.5,163.5C 30.0212,161.692 25.6879,158.358 22.5,153.5C 21.2643,148.071 19.0977,143.071 16,138.5C 15.5,112.502 15.3334,86.5021 15.5,60.5C 15.5,60.1667 15.5,59.8333 15.5,59.5C 20.0224,52.8949 25.0224,46.5616 30.5,40.5C 33.507,40.6349 36.007,39.6349 38,37.5C 40.1879,37.354 41.5212,38.354 42,40.5C 43.6169,39.4642 43.7836,38.2975 42.5,37C 43.8646,35.3181 45.3646,35.1514 47,36.5C 47.6838,35.2161 47.5171,34.0495 46.5,33C 49.4905,31.0348 52.1572,28.8682 54.5,26.5C 59.5441,25.0409 64.5441,23.3742 69.5,21.5C 70.1054,19.5188 71.1054,19.1854 72.5,20.5C 74.1956,17.4893 76.1956,14.8227 78.5,12.5C 83.0427,11.2306 87.376,9.39722 91.5,7C 103.344,4.62742 114.677,6.12742 125.5,11.5 Z"/></g>
<g><path style="opacity:1" fill="#f4542e" d="M 78.5,12.5 C 76.1956,14.8227 74.1956,17.4893 72.5,20.5C 71.1054,19.1854 70.1054,19.5188 69.5,21.5C 64.5441,23.3742 59.5441,25.0409 54.5,26.5C 62.1639,21.332 70.1639,16.6653 78.5,12.5 Z"/></g>
<g><path style="opacity:1" fill="#f6542c" d="M 54.5,26.5 C 52.1572,28.8682 49.4905,31.0348 46.5,33C 47.5171,34.0495 47.6838,35.2161 47,36.5C 45.3646,35.1514 43.8646,35.3181 42.5,37C 43.7836,38.2975 43.6169,39.4642 42,40.5C 41.5212,38.354 40.1879,37.354 38,37.5C 36.007,39.6349 33.507,40.6349 30.5,40.5C 37.8356,34.8274 45.8356,30.1607 54.5,26.5 Z"/></g>
<g><path style="opacity:1" fill="#f26641" d="M 30.5,40.5 C 25.0224,46.5616 20.0224,52.8949 15.5,59.5C 17.9603,51.0526 22.9603,44.7193 30.5,40.5 Z"/></g>
<g><path style="opacity:1" fill="#f06947" d="M 183.5,47.5 C 187.409,51.3172 189.742,55.9838 190.5,61.5C 188.606,58.0611 186.44,54.7278 184,51.5C 183.51,50.2068 183.343,48.8734 183.5,47.5 Z"/></g>
<g><path style="opacity:1" fill="#f66b4a" d="M 15.5,60.5 C 15.3334,86.5021 15.5,112.502 16,138.5C 19.0977,143.071 21.2643,148.071 22.5,153.5C 17.8236,148.476 14.9903,142.476 14,135.5C 13.3333,112.167 13.3333,88.8333 14,65.5C 14.1981,63.6183 14.6981,61.9516 15.5,60.5 Z"/></g>
<g><path style="opacity:1" fill="#f47754" d="M 190.5,61.5 C 191.314,63.631 191.814,65.9644 192,68.5C 192.667,90.1667 192.667,111.833 192,133.5C 191.684,139.466 189.851,144.799 186.5,149.5C 186.338,147.473 186.505,145.473 187,143.5C 188.887,141.974 189.887,139.974 190,137.5C 190.5,112.169 190.667,86.8355 190.5,61.5 Z"/></g>
<g><path style="opacity:1" fill="#fe7816" d="M 100.5,37.5 C 111.167,36.9888 118.667,41.6555 123,51.5C 123.5,58.4921 123.666,65.4921 123.5,72.5C 134.311,71.077 143.311,74.4103 150.5,82.5C 153.588,90.4397 153.088,98.1063 149,105.5C 138.122,123.428 126.622,140.928 114.5,158C 107.063,163.161 98.8967,164.661 90,162.5C 81.1214,153.334 77.9548,142.334 80.5,129.5C 74.7104,129.904 69.0438,129.404 63.5,128C 56.1499,122.569 52.6499,115.403 53,106.5C 54.2023,103.226 55.2023,99.8931 56,96.5C 62.0957,88.0794 67.7623,79.4127 73,70.5C 75.0758,64.1224 77.7425,58.1224 81,52.5C 85.1396,48.3604 89.3063,44.1937 93.5,40C 96.0037,39.3024 98.337,38.4691 100.5,37.5 Z"/></g>
<g><path style="opacity:1" fill="#f74110" d="M 96.5,41.5 C 105.721,39.2511 112.554,42.2511 117,50.5C 118.414,59.4178 118.914,68.4178 118.5,77.5C 124.509,77.3338 130.509,77.5005 136.5,78C 139.785,80.259 143.118,82.4257 146.5,84.5C 149.259,90.2468 149.092,95.9135 146,101.5C 140.242,109.345 135.242,117.679 131,126.5C 127.417,129.324 125.084,132.99 124,137.5C 118.833,144 113.667,150.5 108.5,157C 100.899,159.859 94.0655,158.692 88,153.5C 86.7246,151.283 85.7246,148.949 85,146.5C 84.446,139.427 84.946,132.427 86.5,125.5C 79.3846,125.925 72.3846,125.425 65.5,124C 62.628,121.463 60.128,118.63 58,115.5C 57.3333,111.833 57.3333,108.167 58,104.5C 68.367,85.4431 79.0336,66.4431 90,47.5C 92.3353,45.5998 94.502,43.5998 96.5,41.5 Z"/></g>
<g><path style="opacity:1" fill="#e2d1fa" d="M 121.5,128.5 C 121.167,129.833 120.833,131.167 120.5,132.5C 119.094,132.973 118.427,133.973 118.5,135.5C 116.497,138.118 114.497,140.785 112.5,143.5C 112.286,141.856 112.62,140.356 113.5,139C 112.833,138.333 112.167,137.667 111.5,137C 105.464,136.594 99.6309,136.427 94,136.5C 93.0997,139.718 91.933,142.718 90.5,145.5C 90.7349,140.759 91.4016,136.092 92.5,131.5C 93.2189,129.909 94.2189,128.409 95.5,127C 101.533,126.698 107.533,126.198 113.5,125.5C 113.257,131.837 114.424,132.504 117,127.5C 117.667,128.167 118.333,128.833 119,129.5C 119.671,128.748 120.504,128.414 121.5,128.5 Z"/></g>
<g><path style="opacity:1" fill="#eb5a3f" d="M 128.5,120.5 C 128.657,121.873 128.49,123.207 128,124.5C 125.977,126.54 124.31,128.873 123,131.5C 122.329,132.252 121.496,132.586 120.5,132.5C 120.833,131.167 121.167,129.833 121.5,128.5C 123.547,126.45 125.214,124.117 126.5,121.5C 127.167,121.167 127.833,120.833 128.5,120.5 Z"/></g>
<g><path style="opacity:1" fill="#fcbdc5" d="M 63.5,113.5 C 64.5,113.5 65.5,113.5 66.5,113.5C 66.2852,115.179 66.9519,116.179 68.5,116.5C 75.7894,118.147 83.456,119.147 91.5,119.5C 92.4328,123.429 92.7662,127.429 92.5,131.5C 91.4016,136.092 90.7349,140.759 90.5,145.5C 89.8401,144.036 89.5068,142.369 89.5,140.5C 91.0592,134.243 91.5592,127.909 91,121.5C 83.9133,120.685 76.7466,120.185 69.5,120C 66.5914,118.594 64.5914,116.428 63.5,113.5 Z"/></g>
<g><path style="opacity:1" fill="#eae1fd" d="M 126.5,121.5 C 125.214,124.117 123.547,126.45 121.5,128.5C 120.504,128.414 119.671,128.748 119,129.5C 118.333,128.833 117.667,128.167 117,127.5C 114.424,132.504 113.257,131.837 113.5,125.5C 107.533,126.198 101.533,126.698 95.5,127C 94.2189,128.409 93.2189,129.909 92.5,131.5C 92.7662,127.429 92.4328,123.429 91.5,119.5C 83.456,119.147 75.7894,118.147 68.5,116.5C 69.344,114.241 71.0107,113.241 73.5,113.5C 73.5,114.833 73.5,116.167 73.5,117.5C 76.2919,117.548 78.1253,116.215 79,113.5C 80.0617,114.097 81.2284,114.43 82.5,114.5C 86.7416,114.012 90.9083,113.346 95,112.5C 95.5,113 96,113.5 96.5,114C 98.8333,114.167 101.167,114.333 103.5,114.5C 106.906,114.704 110.072,114.038 113,112.5C 114.624,114.158 116.291,115.825 118,117.5C 119.614,114.398 121.447,114.064 123.5,116.5C 125.551,113.785 127.217,113.952 128.5,117C 126.963,118.11 126.297,119.61 126.5,121.5 Z"/></g>
<g><path style="opacity:1" fill="#ffaa97" d="M 65.5,102.5 C 63.9767,105.635 63.31,108.968 63.5,112.5C 62.3659,110.034 62.1993,107.367 63,104.5C 63.4169,103.244 64.2502,102.577 65.5,102.5 Z"/></g>
<g><path style="opacity:1" fill="#f4effd" d="M 139.5,97.5 C 139.5,98.8333 139.5,100.167 139.5,101.5C 136.141,108.012 132.474,114.346 128.5,120.5C 127.833,120.833 127.167,121.167 126.5,121.5C 126.297,119.61 126.963,118.11 128.5,117C 127.217,113.952 125.551,113.785 123.5,116.5C 121.447,114.064 119.614,114.398 118,117.5C 116.291,115.825 114.624,114.158 113,112.5C 110.072,114.038 106.906,114.704 103.5,114.5C 101.167,114.333 98.8333,114.167 96.5,114C 96,113.5 95.5,113 95,112.5C 90.9083,113.346 86.7416,114.012 82.5,114.5C 81.2284,114.43 80.0617,114.097 79,113.5C 78.1253,116.215 76.2919,117.548 73.5,117.5C 73.5,116.167 73.5,114.833 73.5,113.5C 71.0107,113.241 69.344,114.241 68.5,116.5C 66.9519,116.179 66.2852,115.179 66.5,113.5C 65.5,113.5 64.5,113.5 63.5,113.5C 63.5,113.167 63.5,112.833 63.5,112.5C 63.31,108.968 63.9767,105.635 65.5,102.5C 66.1667,100.833 66.8333,99.1667 67.5,97.5C 68.1667,97.1667 68.8333,96.8333 69.5,96.5C 69.1274,99.5739 68.4608,102.574 67.5,105.5C 68.8734,105.657 70.2068,105.49 71.5,105C 72.5853,102.828 73.9186,100.828 75.5,99C 93.2105,98.82 110.877,98.32 128.5,97.5C 130.758,99.0826 132.592,101.083 134,103.5C 134.595,102.101 134.428,100.768 133.5,99.5C 134.689,98.5713 136.022,98.238 137.5,98.5C 137.367,95.075 138.033,94.7417 139.5,97.5 Z"/></g>
<g><path style="opacity:1" fill="#ffe4da" d="M 113.5,81.5 C 114.167,81.8333 114.833,82.1667 115.5,82.5C 121.992,83.2016 128.659,83.2016 135.5,82.5C 136.878,83.2344 138.378,83.9011 140,84.5C 143.469,90.4256 143.302,96.0922 139.5,101.5C 139.5,100.167 139.5,98.8333 139.5,97.5C 140.264,93.3164 139.931,89.1497 138.5,85C 136.047,84.2618 133.547,83.7618 131,83.5C 125.521,84.4858 120.021,84.6524 114.5,84C 113.748,83.3292 113.414,82.4959 113.5,81.5 Z"/></g>
<g><path style="opacity:1" fill="#feac97" d="M 73.5,87.5 C 73.6567,88.8734 73.49,90.2068 73,91.5C 71.1476,92.6955 69.981,94.3621 69.5,96.5C 68.8333,96.8333 68.1667,97.1667 67.5,97.5C 68.5787,93.5753 70.5787,90.242 73.5,87.5 Z"/></g>
<g><path style="opacity:1" fill="#ffbca7" d="M 78.5,79.5 C 77.5638,82.6712 75.8971,85.3379 73.5,87.5C 74.4362,84.3288 76.1029,81.6621 78.5,79.5 Z"/></g>
<g><path style="opacity:1" fill="#f98469" d="M 135.5,82.5 C 128.659,83.2016 121.992,83.2016 115.5,82.5C 122.332,81.5835 128.999,81.5835 135.5,82.5 Z"/></g>
<g><path style="opacity:1" fill="#ffdecf" d="M 85.5,66.5 C 84.165,70.3053 83.3317,74.3053 83,78.5C 81.984,79.6341 81.3173,79.3008 81,77.5C 80.2917,78.3805 79.4584,79.0472 78.5,79.5C 80.0594,74.7124 82.3927,70.379 85.5,66.5 Z"/></g>
<g><path style="opacity:1" fill="#fed0be" d="M 108.5,48.5 C 110.624,49.0312 112.124,50.3645 113,52.5C 113.5,62.1609 113.666,71.8276 113.5,81.5C 112.67,72.3423 112.17,63.009 112,53.5C 110.824,51.8043 109.657,50.1376 108.5,48.5 Z"/></g>
<g><path style="opacity:1" fill="#fdfcfb" d="M 108.5,48.5 C 109.657,50.1376 110.824,51.8043 112,53.5C 112.17,63.009 112.67,72.3423 113.5,81.5C 113.414,82.4959 113.748,83.3292 114.5,84C 120.021,84.6524 125.521,84.4858 131,83.5C 133.547,83.7618 136.047,84.2618 138.5,85C 139.931,89.1497 140.264,93.3164 139.5,97.5C 138.033,94.7417 137.367,95.075 137.5,98.5C 136.022,98.238 134.689,98.5713 133.5,99.5C 134.428,100.768 134.595,102.101 134,103.5C 132.592,101.083 130.758,99.0826 128.5,97.5C 110.877,98.32 93.2105,98.82 75.5,99C 73.9186,100.828 72.5853,102.828 71.5,105C 70.2068,105.49 68.8734,105.657 67.5,105.5C 68.4608,102.574 69.1274,99.5739 69.5,96.5C 69.981,94.3621 71.1476,92.6955 73,91.5C 73.49,90.2068 73.6567,88.8734 73.5,87.5C 75.8971,85.3379 77.5638,82.6712 78.5,79.5C 79.4584,79.0472 80.2917,78.3805 81,77.5C 81.3173,79.3008 81.984,79.6341 83,78.5C 83.3317,74.3053 84.165,70.3053 85.5,66.5C 88.156,60.015 91.8227,54.1816 96.5,49C 100.563,47.2864 104.563,47.1198 108.5,48.5 Z"/></g>
<g><path style="opacity:1" fill="#e97a6f" d="M 120.5,132.5 C 120.573,134.027 119.906,135.027 118.5,135.5C 118.427,133.973 119.094,132.973 120.5,132.5 Z"/></g>
<g><path style="opacity:1" fill="#d9c5f8" d="M 112.5,143.5 C 111.89,144.391 111.557,145.391 111.5,146.5C 109.167,148.167 107.167,150.167 105.5,152.5C 98.2001,155.217 93.2001,152.883 90.5,145.5C 91.933,142.718 93.0997,139.718 94,136.5C 99.6309,136.427 105.464,136.594 111.5,137C 112.167,137.667 112.833,138.333 113.5,139C 112.62,140.356 112.286,141.856 112.5,143.5 Z"/></g>
<g><path style="opacity:1" fill="#e98081" d="M 111.5,146.5 C 110.5,149.5 108.5,151.5 105.5,152.5C 107.167,150.167 109.167,148.167 111.5,146.5 Z"/></g>
<g><path style="opacity:1" fill="#f2623c" d="M 168.5,164.5 C 160.836,169.668 152.836,174.335 144.5,178.5C 145.914,176.946 147.581,175.612 149.5,174.5C 149.291,173.914 148.957,173.414 148.5,173C 152.618,172.885 156.285,171.718 159.5,169.5C 159.5,168.5 159.5,167.5 159.5,166.5C 160.873,166.657 162.207,166.49 163.5,166C 162.346,165.086 162.513,164.253 164,163.5C 165.356,164.38 166.856,164.714 168.5,164.5 Z"/></g>
<g><path style="opacity:1" fill="#f6542e" d="M 35.5,163.5 C 38.1267,164.105 40.7934,164.605 43.5,165C 43.1667,165.333 42.8333,165.667 42.5,166C 44.7008,166.825 46.5341,166.325 48,164.5C 48.5074,165.996 48.0074,167.163 46.5,168C 48.2399,169.827 49.9065,169.66 51.5,167.5C 52.1667,169.167 52.8333,170.833 53.5,172.5C 56.1751,173.521 58.1751,175.187 59.5,177.5C 51.1639,173.335 43.1639,168.668 35.5,163.5 Z"/></g>
<g><path style="opacity:1" fill="#ef5f35" d="M 87.5,193.5 C 96.7534,195.732 106.087,196.065 115.5,194.5C 108.173,197.844 100.506,198.344 92.5,196C 90.5087,195.626 88.842,194.793 87.5,193.5 Z"/></g>
</svg>
